<mxfile host="app.diagrams.net" modified="2022-11-16T10:31:51.197Z" agent="5.0 (Windows NT 10.0; Win64; x64) AppleWebKit/537.36 (KHTML, like Gecko) Chrome/107.0.0.0 Safari/537.36" etag="SbWGXpxaWDeQPJ51yE5A" version="20.5.3" type="github">
  <diagram id="0QV0ze1oS47aMYUOlha5" name="Page-1">
    <mxGraphModel dx="981" dy="552" grid="1" gridSize="10" guides="1" tooltips="1" connect="1" arrows="1" fold="1" page="1" pageScale="1" pageWidth="850" pageHeight="1100" math="0" shadow="0">
      <root>
        <mxCell id="0" />
        <mxCell id="1" parent="0" />
        <mxCell id="5CADswkSSXYxrtWv3Kgu-1" value="FiniteAutomata" style="swimlane;fontStyle=1;align=center;verticalAlign=top;childLayout=stackLayout;horizontal=1;startSize=26;horizontalStack=0;resizeParent=1;resizeParentMax=0;resizeLast=0;collapsible=1;marginBottom=0;" vertex="1" parent="1">
          <mxGeometry x="290" y="240" width="370" height="220" as="geometry" />
        </mxCell>
        <mxCell id="5CADswkSSXYxrtWv3Kgu-5" value="+ file: string" style="text;strokeColor=default;fillColor=none;align=left;verticalAlign=top;spacingLeft=4;spacingRight=4;overflow=hidden;rotatable=0;points=[[0,0.5],[1,0.5]];portConstraint=eastwest;" vertex="1" parent="5CADswkSSXYxrtWv3Kgu-1">
          <mxGeometry y="26" width="370" height="26" as="geometry" />
        </mxCell>
        <mxCell id="5CADswkSSXYxrtWv3Kgu-2" value="- allStates: List&lt;String&gt;&#xa;- inputSymbols: List&lt;String&gt;&#xa;- initialState: String&#xa;- finalStates: List&lt;String&gt;&#xa;- allStates: List&lt;Pair&lt;Pair&lt;String, String&gt;, String&gt;&gt;&#xa;" style="text;strokeColor=none;fillColor=none;align=left;verticalAlign=top;spacingLeft=4;spacingRight=4;overflow=hidden;rotatable=0;points=[[0,0.5],[1,0.5]];portConstraint=eastwest;" vertex="1" parent="5CADswkSSXYxrtWv3Kgu-1">
          <mxGeometry y="52" width="370" height="78" as="geometry" />
        </mxCell>
        <mxCell id="5CADswkSSXYxrtWv3Kgu-3" value="" style="line;strokeWidth=1;fillColor=none;align=left;verticalAlign=middle;spacingTop=-1;spacingLeft=3;spacingRight=3;rotatable=0;labelPosition=right;points=[];portConstraint=eastwest;strokeColor=inherit;" vertex="1" parent="5CADswkSSXYxrtWv3Kgu-1">
          <mxGeometry y="130" width="370" height="8" as="geometry" />
        </mxCell>
        <mxCell id="5CADswkSSXYxrtWv3Kgu-4" value="- readLines()&#xa;- checkSequence(string):boolean&#xa;+showMenu()" style="text;strokeColor=none;fillColor=none;align=left;verticalAlign=top;spacingLeft=4;spacingRight=4;overflow=hidden;rotatable=0;points=[[0,0.5],[1,0.5]];portConstraint=eastwest;" vertex="1" parent="5CADswkSSXYxrtWv3Kgu-1">
          <mxGeometry y="138" width="370" height="82" as="geometry" />
        </mxCell>
      </root>
    </mxGraphModel>
  </diagram>
</mxfile>
